<svg width="16" height="16" viewBox="0 0 16 16" fill="none" xmlns="http://www.w3.org/2000/svg">
<g clip-path="url(#clip0_888_296)">
<path d="M8 0.125V8H0.125C0.125 5.91142 0.954685 3.90838 2.43153 2.43153C3.90838 0.954685 5.91142 0.125 8 0.125V0.125Z" fill="url(#paint0_linear_888_296)"/>
<path d="M15.875 8H8V0.125C10.0886 0.125 12.0916 0.954685 13.5685 2.43153C15.0453 3.90838 15.875 5.91142 15.875 8V8Z" fill="url(#paint1_linear_888_296)"/>
<path d="M15.875 8C15.875 10.0886 15.0453 12.0916 13.5685 13.5685C12.0916 15.0453 10.0886 15.875 8 15.875V8H15.875Z" fill="url(#paint2_linear_888_296)"/>
<path d="M10.3 10.2112L10.625 9.45375C11.5075 9.33656 12.4015 9.56005 13.125 10.0787C13.5675 10.3887 13.625 10.6825 13.5 10.9325L10.3 10.2112Z" fill="#8288A1"/>
<path d="M8 8V15.875C5.91142 15.875 3.90838 15.0453 2.43153 13.5685C0.954685 12.0916 0.125 10.0886 0.125 8H8Z" fill="url(#paint3_linear_888_296)"/>
<path d="M6.06878 11.8475C5.44481 12.6855 5.11324 13.7053 5.12503 14.75H3.75003C3.75003 13.9337 3.51003 12.7062 2.97003 11.9537L3.27628 11.795C3.67128 12.2875 4.12503 13 4.12503 13V11.7812L4.37503 11.5L4.67628 11.9675L4.75003 13C5.04003 12.5637 5.41503 12.0862 5.67878 11.7625L6.06878 11.8475Z" fill="url(#paint4_linear_888_296)"/>
<path d="M6.75 2.375H2C1.86193 2.375 1.75 2.48693 1.75 2.625V2.875C1.75 3.01307 1.86193 3.125 2 3.125H6.75C6.88807 3.125 7 3.01307 7 2.875V2.625C7 2.48693 6.88807 2.375 6.75 2.375Z" fill="url(#paint5_linear_888_296)"/>
<path d="M7.00001 2.875C7.00001 2.9413 6.97367 3.00489 6.92678 3.05178C6.8799 3.09866 6.81631 3.125 6.75001 3.125H2.00001C1.9337 3.125 1.87011 3.09866 1.82323 3.05178C1.77634 3.00489 1.75001 2.9413 1.75001 2.875C1.74078 2.77085 1.74371 2.66597 1.75876 2.5625C1.77258 2.61603 1.80375 2.66347 1.8474 2.69739C1.89105 2.73132 1.94472 2.74982 2.00001 2.75H6.75001C6.80529 2.74982 6.85896 2.73132 6.90261 2.69739C6.94626 2.66347 6.97743 2.61603 6.99126 2.5625C7.00676 2.66593 7.00969 2.77086 7.00001 2.875V2.875Z" fill="#CBA07A"/>
<path d="M6.75 3.125C6.75 3.125 7 4.25 7 4.875C7 5.5 6.75 6.125 6.75 6.5C6.75 6.875 7 6.875 7 7.125C7 7.375 6.75 7.375 6.5 7.375H2.25C2 7.375 1.75 7.375 1.75 7.125C1.75 6.875 2 6.875 2 6.5C2 6.125 1.75 5.5 1.75 4.875C1.75 4.25 2 3.125 2 3.125H6.75Z" fill="url(#paint6_linear_888_296)"/>
<path d="M6.8575 6.83752C6.9398 6.91177 6.99075 7.01457 7 7.12502C7 7.37502 6.75 7.37502 6.5 7.37502H2.25C2 7.37502 1.75 7.37502 1.75 7.12502C1.75925 7.01457 1.8102 6.91177 1.8925 6.83752C2.0175 6.88877 2.02625 6.87502 4.375 6.87502C6.72375 6.87502 6.7275 6.88877 6.8575 6.83752Z" fill="#CBA07A"/>
<path d="M4.375 5.75C4.37472 5.56817 4.3084 5.39263 4.18837 5.25605C4.06835 5.11947 3.90279 5.03114 3.7225 5.0075C3.61693 4.93888 3.52996 4.84523 3.46933 4.73488C3.4087 4.62453 3.3763 4.5009 3.375 4.375C3.66125 4.375 3.89625 4.34875 4.13625 4.5775C4.43875 4.8575 4.375 5.175 4.375 5.75Z" fill="url(#paint7_linear_888_296)"/>
<path d="M5.37503 4.375C5.37385 4.49976 5.34157 4.62225 5.28111 4.73138C5.22065 4.84052 5.13392 4.93284 5.02878 5C4.84698 5.02352 4.68009 5.11281 4.55963 5.25099C4.43918 5.38918 4.37351 5.56669 4.37503 5.75V5.125C4.37503 4.92609 4.45404 4.73532 4.5947 4.59467C4.73535 4.45402 4.92611 4.375 5.12503 4.375H5.37503Z" fill="url(#paint8_linear_888_296)"/>
<path d="M4.375 5.5V5.75C4.37472 5.56817 4.3084 5.39263 4.18837 5.25605C4.06835 5.11947 3.90279 5.03114 3.7225 5.0075C3.61693 4.93889 3.52996 4.84523 3.46933 4.73488C3.4087 4.62453 3.3763 4.5009 3.375 4.375H3.41875C3.47448 4.53282 3.58141 4.66747 3.7225 4.7575C3.90279 4.78114 4.06835 4.86947 4.18837 5.00605C4.3084 5.14263 4.37472 5.31817 4.375 5.5V5.5Z" fill="#F6B756"/>
<path d="M5.37503 4.375C5.37385 4.49976 5.34157 4.62225 5.28111 4.73138C5.22065 4.84052 5.13392 4.93284 5.02878 5C4.84698 5.02352 4.68009 5.11281 4.55963 5.25099C4.43918 5.38918 4.37351 5.56669 4.37503 5.75V5.5C4.3753 5.31817 4.44162 5.14263 4.56165 5.00605C4.68168 4.86947 4.84724 4.78114 5.02753 4.7575C5.16862 4.66747 5.27554 4.53282 5.33128 4.375H5.37503Z" fill="#F6B756"/>
<path d="M4.61374 4.5775C4.5382 4.64726 4.47798 4.73194 4.43688 4.82618C4.39578 4.92043 4.37471 5.02218 4.37499 5.125C4.37527 5.02218 4.35419 4.92043 4.31309 4.82618C4.27199 4.73194 4.21177 4.64726 4.13624 4.5775C4.06815 4.43735 4.04541 4.27947 4.07117 4.12579C4.09694 3.97212 4.16992 3.83029 4.27999 3.72L4.37499 3.625L4.46999 3.72C4.58005 3.83029 4.65304 3.97212 4.6788 4.12579C4.70456 4.27947 4.68182 4.43735 4.61374 4.5775Z" fill="url(#paint9_linear_888_296)"/>
<path d="M4.61378 4.5775C4.53825 4.64726 4.47802 4.73194 4.43692 4.82618C4.39583 4.92043 4.37475 5.02218 4.37503 5.125C4.37531 5.02218 4.35423 4.92043 4.31313 4.82618C4.27204 4.73194 4.21181 4.64726 4.13628 4.5775C4.06848 4.43697 4.04619 4.27879 4.07253 4.125C4.11003 4.39625 4.19753 4.3225 4.30753 4.56625C4.31329 4.57935 4.32275 4.59049 4.33473 4.5983C4.34672 4.60612 4.36072 4.61029 4.37503 4.61029C4.38934 4.61029 4.40334 4.60612 4.41533 4.5983C4.42731 4.59049 4.43676 4.57935 4.44253 4.56625C4.55503 4.31625 4.63878 4.3975 4.67753 4.125C4.70387 4.27879 4.68158 4.43697 4.61378 4.5775V4.5775Z" fill="#F6B756"/>
<path d="M4.375 5.74998H4.125C3.92609 5.74998 3.73532 5.67096 3.59467 5.53031C3.45402 5.38965 3.375 5.19889 3.375 4.99998C3.49088 4.99623 3.60689 4.99873 3.7225 5.00748C3.90279 5.03111 4.06835 5.11944 4.18837 5.25603C4.3084 5.39261 4.37472 5.56815 4.375 5.74998V5.74998Z" fill="url(#paint10_linear_888_296)"/>
<path d="M5.375 4.99998C5.375 5.19889 5.29598 5.38965 5.15533 5.53031C5.01468 5.67096 4.82391 5.74998 4.625 5.74998H4.375C4.37528 5.56815 4.4416 5.39261 4.56163 5.25603C4.68165 5.11944 4.84721 5.03111 5.0275 5.00748C5.14311 4.99873 5.25912 4.99623 5.375 4.99998V4.99998Z" fill="url(#paint11_linear_888_296)"/>
<path d="M4.375 5.75H4.125C3.92609 5.75 3.73532 5.67098 3.59467 5.53033C3.45402 5.38968 3.375 5.19891 3.375 5H3.41875C3.4704 5.14609 3.56603 5.27259 3.69249 5.36213C3.81896 5.45166 3.97005 5.49982 4.125 5.5H4.33125C4.36052 5.58009 4.37534 5.66473 4.375 5.75V5.75Z" fill="#F6B756"/>
<path d="M5.37501 5C5.37501 5.19891 5.29599 5.38968 5.15534 5.53033C5.01468 5.67098 4.82392 5.75 4.62501 5.75H4.37501C4.37467 5.66473 4.38948 5.58009 4.41876 5.5H4.62501C4.77996 5.49982 4.93105 5.45166 5.05751 5.36213C5.18398 5.27259 5.27961 5.14609 5.33126 5H5.37501Z" fill="#F6B756"/>
<path d="M6.375 2.37501H2.375C2.47387 2.2432 2.58118 2.11794 2.69625 2.00001C3.78 0.882509 4.8825 0.792509 6.05375 2.00001C6.16882 2.11794 6.27613 2.2432 6.375 2.37501V2.37501Z" fill="url(#paint12_linear_888_296)"/>
<path d="M14.875 11.7037C14.9841 11.7402 15.079 11.81 15.1463 11.9033C15.2136 11.9966 15.2499 12.1087 15.25 12.2237V13.2037C14.625 13.2037 14.75 12.3287 14 12.3287C13.4187 12.3287 13.0625 12.93 12.1737 13.2037L10.875 13.3075C9.4925 13.1612 8.5 12.1825 8.5 11.7037C8.5 11.1687 9.6775 10.0787 11.25 10.0787C12.875 10.0787 13.25 11.0787 14 11.0787C14.75 11.0787 14.625 10.2037 15.25 10.2037V11.1837C15.2499 11.2988 15.2136 11.4109 15.1463 11.5042C15.079 11.5975 14.9841 11.6673 14.875 11.7037V11.7037Z" fill="url(#paint13_linear_888_296)"/>
<path d="M15.25 12.8287V13.2037C14.625 13.2037 14.75 12.3287 14 12.3287C13.4187 12.3287 13.0625 12.93 12.1737 13.2037L10.875 13.3075C9.45375 13.155 8.5 12.165 8.5 11.7037C8.50188 11.6392 8.51587 11.5756 8.54125 11.5162C8.7375 12.0162 9.62625 12.7987 10.8763 12.9325L12.1737 12.825C13.0625 12.555 13.4237 11.95 14 11.95C14.75 11.9537 14.625 12.8287 15.25 12.8287Z" fill="#8288A1"/>
<path d="M11.375 12.8287C11.875 12.8287 12.5 13.4275 12.5 13.6675C12.5 13.9075 11.645 13.8575 11.25 13.6675C11 13.5425 10.75 13.1887 10.75 12.9487" fill="#ADB3C4"/>
<path d="M12.5 13.6675C12.5 13.9075 11.645 13.8575 11.25 13.6675C11 13.5425 10.75 13.1887 10.75 12.9487L10.875 12.925C10.9643 13.0793 11.0939 13.2063 11.25 13.2925C11.5538 13.4387 12.125 13.5012 12.375 13.4175C12.4406 13.4865 12.4841 13.5736 12.5 13.6675V13.6675Z" fill="#8288A1"/>
<path d="M9.625 11.4537C9.57555 11.4537 9.52722 11.4391 9.48611 11.4116C9.445 11.3841 9.41295 11.3451 9.39403 11.2994C9.37511 11.2537 9.37016 11.2035 9.3798 11.155C9.38945 11.1065 9.41326 11.0619 9.44822 11.027C9.48319 10.992 9.52773 10.9682 9.57623 10.9585C9.62472 10.9489 9.67499 10.9538 9.72067 10.9728C9.76635 10.9917 9.8054 11.0237 9.83287 11.0648C9.86034 11.106 9.875 11.1543 9.875 11.2037C9.875 11.27 9.84866 11.3336 9.80178 11.3805C9.75489 11.4274 9.6913 11.4537 9.625 11.4537Z" fill="#454B60"/>
<path d="M1.62502 10.935C1.62502 11.8975 2.78502 12.3675 3.42627 11.6588C3.48078 11.7173 3.54675 11.764 3.62009 11.7959C3.69342 11.8278 3.77254 11.8442 3.85252 11.8442C3.93249 11.8442 4.01161 11.8278 4.08495 11.7959C4.15828 11.764 4.22426 11.7173 4.27877 11.6588C4.34546 11.7609 4.43656 11.8448 4.54383 11.9029C4.6511 11.9609 4.77116 11.9913 4.89314 11.9913C5.01512 11.9913 5.13518 11.9609 5.24245 11.9029C5.34972 11.8448 5.44083 11.7609 5.50752 11.6588C5.66501 11.7634 5.84804 11.8232 6.03694 11.8317C6.22585 11.8402 6.41351 11.7971 6.57978 11.7071C6.74605 11.617 6.88465 11.4833 6.98071 11.3205C7.07677 11.1576 7.12665 10.9716 7.12502 10.7825C7.1258 10.5807 7.06938 10.3829 6.9623 10.2119C6.85522 10.0408 6.70187 9.90367 6.52002 9.81626C6.53982 9.73317 6.53536 9.64615 6.50717 9.56553C6.47898 9.4849 6.42824 9.41406 6.36099 9.36142C6.29373 9.30877 6.21278 9.27653 6.12775 9.26852C6.04271 9.26052 5.95717 9.27709 5.88127 9.31626C5.83504 9.17461 5.7564 9.0457 5.65159 8.93979C5.54678 8.83389 5.4187 8.7539 5.27754 8.7062C5.13638 8.6585 4.98604 8.6444 4.83847 8.66503C4.6909 8.68565 4.55019 8.74043 4.42752 8.82501C4.40204 8.73199 4.34671 8.64991 4.27004 8.59141C4.19336 8.53291 4.09959 8.50122 4.00314 8.50122C3.9067 8.50122 3.81292 8.53291 3.73625 8.59141C3.65957 8.64991 3.60424 8.73199 3.57877 8.82501C3.44153 8.79302 3.29805 8.80034 3.16478 8.84614C3.03151 8.89194 2.91384 8.97436 2.82525 9.08395C2.73666 9.19354 2.68074 9.32588 2.6639 9.46579C2.64706 9.60569 2.66997 9.74752 2.73002 9.87501C2.58668 9.8673 2.44329 9.88909 2.30872 9.93905C2.17415 9.989 2.05127 10.066 1.94768 10.1654C1.84409 10.2648 1.76201 10.3844 1.70651 10.5167C1.65101 10.6491 1.62327 10.7915 1.62502 10.935Z" fill="url(#paint14_linear_888_296)"/>
<path d="M5.50751 11.67C5.44082 11.7721 5.34972 11.856 5.24245 11.9141C5.13518 11.9721 5.01512 12.0026 4.89314 12.0026C4.77116 12.0026 4.6511 11.9721 4.54383 11.9141C4.43656 11.856 4.34545 11.7721 4.27876 11.67C4.22425 11.7285 4.15828 11.7752 4.08494 11.8071C4.01161 11.839 3.93249 11.8555 3.85251 11.8555C3.77254 11.8555 3.69342 11.839 3.62008 11.8071C3.54675 11.7752 3.48077 11.7285 3.42626 11.67C2.69001 12.4837 1.35001 11.7325 1.67626 10.6337C1.72612 10.8111 1.82262 10.9718 1.95572 11.0991C2.08881 11.2265 2.25362 11.3158 2.43298 11.3578C2.61234 11.3998 2.79968 11.3929 2.97548 11.3379C3.15128 11.2829 3.3091 11.1817 3.43251 11.045C3.48692 11.1037 3.55287 11.1505 3.62622 11.1825C3.69956 11.2145 3.77873 11.231 3.85876 11.231C3.93879 11.231 4.01796 11.2145 4.09131 11.1825C4.16466 11.1505 4.2306 11.1037 4.28501 11.045C4.3517 11.1471 4.44281 11.231 4.55008 11.2891C4.65735 11.3471 4.77741 11.3776 4.89939 11.3776C5.02137 11.3776 5.14143 11.3471 5.2487 11.2891C5.35597 11.231 5.44707 11.1471 5.51376 11.045C5.6492 11.1358 5.80416 11.1934 5.96604 11.213C6.12793 11.2327 6.29216 11.2138 6.44539 11.158C6.59862 11.1022 6.73652 11.0111 6.84788 10.892C6.95924 10.7728 7.04092 10.6291 7.08626 10.4725C7.36501 11.4525 6.29876 12.2087 5.50751 11.67Z" fill="#4DA67F"/>
<path d="M12.815 2.64497C13.815 2.60622 14.2475 3.53747 14.25 4.55122C14.25 5.73247 13.1688 7.37497 12.3538 7.37497C11.8113 7.37497 11.9013 7.28497 11.63 7.28497C11.3588 7.28497 11.4488 7.37622 10.9062 7.37747C10.0913 7.37497 9 5.74247 9 4.55997C9 3.37747 9.54 2.64997 10.355 2.64872C10.9875 2.64872 11.355 2.82872 11.6225 2.82872L12.815 2.64497Z" fill="url(#paint15_linear_888_296)"/>
<path d="M12.3538 7.37502C11.8113 7.37502 11.9013 7.28502 11.63 7.28502C11.3588 7.28502 11.4488 7.37627 10.9063 7.37752C10.1825 7.37502 8.88751 5.81627 9.01126 4.27002C9.12501 5.42627 10.1388 6.87502 10.9063 6.87502C11.4488 6.87502 11.3588 6.78377 11.63 6.78252C11.9013 6.78127 11.8113 6.87377 12.3538 6.87252C13.125 6.87502 14.125 5.42502 14.2388 4.27002C14.365 5.78377 13.0975 7.37502 12.3538 7.37502Z" fill="#7ECE67"/>
<path d="M13.5813 4.55247C13.5902 4.2518 13.5321 3.95292 13.4113 3.67747C13.1988 3.25372 12.8513 3.31372 12.89 3.31372C12.8569 3.31372 12.8251 3.30055 12.8016 3.27711C12.7782 3.25367 12.765 3.22187 12.765 3.18872C12.765 3.15557 12.7782 3.12377 12.8016 3.10033C12.8251 3.07689 12.8569 3.06372 12.89 3.06372C13.5888 3.06372 13.8288 3.84622 13.83 4.54997C13.8272 4.58085 13.8131 4.60959 13.7903 4.63063C13.7675 4.65166 13.7378 4.66348 13.7068 4.66379C13.6758 4.6641 13.6458 4.65289 13.6226 4.63231C13.5994 4.61174 13.5847 4.58329 13.5813 4.55247Z" fill="#E7F4CE"/>
<path d="M11.625 2.82877H12.1625C12.3295 2.82844 12.4948 2.79519 12.6489 2.7309C12.803 2.66662 12.943 2.57257 13.0607 2.45415C13.1784 2.33572 13.2716 2.19524 13.335 2.04074C13.3984 1.88624 13.4307 1.72076 13.43 1.55377H12.89C12.7232 1.55426 12.5581 1.58765 12.4042 1.65202C12.2503 1.71639 12.1106 1.81049 11.9931 1.92891C11.8756 2.04734 11.7826 2.18778 11.7194 2.34219C11.6563 2.4966 11.6242 2.66195 11.625 2.82877V2.82877Z" fill="url(#paint16_linear_888_296)"/>
<path d="M13.43 1.55249C13.4306 1.71948 13.3984 1.88496 13.335 2.03946C13.2716 2.19395 13.1784 2.33444 13.0607 2.45287C12.9429 2.57129 12.803 2.66534 12.6489 2.72962C12.4948 2.79391 12.3295 2.82716 12.1625 2.82749C11.6012 2.82749 11.6225 2.83749 11.6225 2.82749C11.6218 2.70043 11.6403 2.574 11.6775 2.45249H12.1625C12.4343 2.45197 12.6988 2.36427 12.917 2.20226C13.1353 2.04026 13.2958 1.81251 13.375 1.55249H13.43Z" fill="#4DA67F"/>
<path d="M6.375 2.375H2.375C2.47387 2.24319 2.58118 2.11793 2.69625 2H6.05375C6.16882 2.11793 6.27613 2.24319 6.375 2.375V2.375Z" fill="#C7CDD8"/>
<path d="M5.17875 14C5.14289 14.2484 5.12493 14.499 5.125 14.75H3.75C3.74533 14.499 3.72529 14.2485 3.69 14H5.17875Z" fill="#4DA67F"/>
<path d="M3.25 4.99999C3.25 5.23206 3.34219 5.45462 3.50628 5.61871C3.67038 5.78281 3.89294 5.87499 4.125 5.87499H4.25V6.37499C4.25 6.40814 4.26317 6.43994 4.28661 6.46338C4.31006 6.48682 4.34185 6.49999 4.375 6.49999C4.40815 6.49999 4.43995 6.48682 4.46339 6.46338C4.48683 6.43994 4.5 6.40814 4.5 6.37499V5.87499H4.625C4.85707 5.87499 5.07963 5.78281 5.24372 5.61871C5.40782 5.45462 5.5 5.23206 5.5 4.99999C5.5 4.96684 5.48683 4.93505 5.46339 4.9116C5.43995 4.88816 5.40815 4.87499 5.375 4.87499H5.3425C5.44538 4.72859 5.5004 4.55393 5.5 4.37499C5.5 4.34184 5.48683 4.31005 5.46339 4.2866C5.43995 4.26316 5.40815 4.24999 5.375 4.24999H5.125C5.01725 4.24967 4.91039 4.2696 4.81 4.30874C4.81894 4.18453 4.80127 4.05983 4.75816 3.943C4.71504 3.82616 4.64749 3.71988 4.56 3.63124L4.465 3.53624C4.45338 3.52453 4.43956 3.51523 4.42432 3.50888C4.40909 3.50253 4.39275 3.49927 4.37625 3.49927C4.35975 3.49927 4.34341 3.50253 4.32818 3.50888C4.31295 3.51523 4.29912 3.52453 4.2875 3.53624L4.1925 3.63124C4.10502 3.71988 4.03746 3.82616 3.99435 3.943C3.95124 4.05983 3.93356 4.18453 3.9425 4.30874C3.84133 4.26929 3.7336 4.24935 3.625 4.24999H3.375C3.34185 4.24999 3.31006 4.26316 3.28661 4.2866C3.26317 4.31005 3.25 4.34184 3.25 4.37499C3.2496 4.55393 3.30462 4.72859 3.4075 4.87499H3.375C3.34185 4.87499 3.31006 4.88816 3.28661 4.9116C3.26317 4.93505 3.25 4.96684 3.25 4.99999ZM4.125 5.62499C3.98092 5.62502 3.84125 5.57527 3.72964 5.48416C3.61802 5.39304 3.54132 5.26616 3.5125 5.12499H3.625C3.76908 5.12496 3.90875 5.17472 4.02036 5.26583C4.13198 5.35694 4.20869 5.48382 4.2375 5.62499H4.125ZM4.625 5.62499H4.5125C4.54132 5.48382 4.61802 5.35694 4.72964 5.26583C4.84125 5.17472 4.98092 5.12496 5.125 5.12499H5.2375C5.20869 5.26616 5.13198 5.39304 5.02036 5.48416C4.90875 5.57527 4.76908 5.62502 4.625 5.62499ZM5.2375 4.49999C5.20441 4.65834 5.11121 4.79769 4.9775 4.88874C4.796 4.91976 4.6289 5.00724 4.5 5.13874V5.12499C4.5 4.95923 4.56585 4.80026 4.68306 4.68305C4.80027 4.56584 4.95924 4.49999 5.125 4.49999H5.2375ZM4.375 3.80874V3.80124V3.80874C4.46425 3.89879 4.524 4.01385 4.54633 4.13865C4.56865 4.26345 4.5525 4.39209 4.5 4.50749C4.45158 4.55841 4.4096 4.61508 4.375 4.67624C4.33807 4.61467 4.29356 4.55797 4.2425 4.50749C4.19094 4.39136 4.176 4.26227 4.19967 4.13743C4.22335 4.01259 4.28451 3.89794 4.375 3.80874V3.80874ZM3.625 4.49999C3.79076 4.49999 3.94973 4.56584 4.06694 4.68305C4.18415 4.80026 4.25 4.95923 4.25 5.12499V5.13874C4.12111 5.00724 3.95401 4.91976 3.7725 4.88874C3.63879 4.79769 3.54559 4.65834 3.5125 4.49999H3.625Z" fill="#47566A"/>
<path d="M15.375 11.1838V11.1038C16.0127 9.58875 16.1682 7.91409 15.8204 6.30756C15.4726 4.70104 14.6384 3.24064 13.4313 2.12501C13.5132 1.9439 13.5558 1.74751 13.5563 1.54876C13.5564 1.53231 13.5532 1.516 13.547 1.50077C13.5408 1.48554 13.5316 1.47169 13.52 1.46001C13.5083 1.44842 13.4945 1.43925 13.4793 1.43303C13.464 1.42681 13.4477 1.42366 13.4313 1.42376H12.89C12.7942 1.42358 12.6987 1.43363 12.605 1.45376C11.3684 0.584071 9.91076 0.0825656 8.40086 0.00734714C6.89096 -0.0678714 5.39065 0.286276 4.07376 1.02876C3.17876 1.19126 2.48251 2.02876 2.31251 2.25001H2.00001C1.90056 2.25001 1.80518 2.28951 1.73485 2.35984C1.66452 2.43017 1.62501 2.52555 1.62501 2.62501V2.87501C1.62522 2.94993 1.64786 3.02307 1.69001 3.08501C1.01017 3.95787 0.518777 4.96227 0.246875 6.03472C-0.0250263 7.10717 -0.0715212 8.22436 0.110329 9.3157C0.292179 10.407 0.69842 11.4488 1.30338 12.3751C1.90834 13.3015 2.69887 14.0922 3.62501 14.6975C3.62501 14.73 3.62501 14.7488 3.62501 14.75C3.62501 14.7832 3.63818 14.815 3.66163 14.8384C3.68507 14.8618 3.71686 14.875 3.75001 14.875H3.90751C5.62277 15.8958 7.65766 16.2385 9.61265 15.8359C11.5676 15.4332 13.3015 14.3143 14.4738 12.6988C14.5125 12.75 14.5488 12.8063 14.5863 12.8638C14.725 13.0813 14.8838 13.3288 15.25 13.3288C15.2832 13.3288 15.315 13.3156 15.3384 13.2921C15.3618 13.2687 15.375 13.2369 15.375 13.2038V12.2238C15.3744 12.124 15.3517 12.0256 15.3085 11.9356C15.2653 11.8457 15.2026 11.7665 15.125 11.7038C15.2027 11.6411 15.2655 11.5619 15.3087 11.472C15.352 11.382 15.3746 11.2836 15.375 11.1838ZM12.89 1.68376H13.2988C13.2689 1.96457 13.1364 2.22447 12.9267 2.41363C12.717 2.60278 12.4449 2.70788 12.1625 2.70876H11.75C11.7785 2.42629 11.911 2.16449 12.1216 1.97417C12.3323 1.78384 12.6061 1.67856 12.89 1.67876V1.68376ZM12.89 2.77376C13.0637 2.77156 13.2352 2.81228 13.3894 2.89231C13.5436 2.97234 13.6756 3.0892 13.7738 3.23251C14 3.54376 14.125 4.00001 14.125 4.55126C14.125 5.65876 13.0838 7.25001 12.3538 7.25001C12.1969 7.26186 12.0393 7.24449 11.8888 7.19876C11.8082 7.17208 11.7237 7.15898 11.6388 7.16001V7.16001C11.5509 7.15837 11.4633 7.1719 11.38 7.20001C11.2294 7.2453 11.0719 7.26308 10.915 7.25251V7.25251C10.5713 7.25001 10.125 6.90251 9.75002 6.34126C9.37502 5.78001 9.12502 5.09126 9.12502 4.56001C9.12502 3.47626 9.60626 2.77501 10.355 2.77376C10.6444 2.77685 10.9323 2.81505 11.2125 2.88751C11.3443 2.92425 11.4797 2.94647 11.6163 2.95376H12.1625C12.4031 2.95285 12.6395 2.89 12.8488 2.77126L12.89 2.77376ZM11.7438 2.04001C11.7289 1.82545 11.6331 1.62455 11.4758 1.47791C11.3185 1.33126 11.1113 1.24981 10.8963 1.25001V1.25001C10.8631 1.25001 10.8313 1.26318 10.8079 1.28662C10.7844 1.31006 10.7713 1.34185 10.7713 1.37501C10.7713 1.40816 10.7844 1.43995 10.8079 1.46339C10.8313 1.48684 10.8631 1.50001 10.8963 1.50001C10.9748 1.4998 11.0525 1.51516 11.125 1.5452C11.1976 1.57524 11.2634 1.61936 11.3188 1.67501C11.3755 1.73067 11.4207 1.79696 11.4518 1.8701C11.4829 1.94324 11.4993 2.02178 11.5 2.10126V2.69001C11.435 2.68001 11.3613 2.66376 11.2775 2.64376C10.9792 2.56465 10.6723 2.52267 10.3638 2.51876V2.51876C9.45377 2.52501 8.87502 3.32501 8.87502 4.56001C8.87502 5.14126 9.12502 5.86001 9.54502 6.48126C9.96502 7.10251 10.4825 7.50001 10.905 7.50001C11.087 7.51113 11.2694 7.48953 11.4438 7.43626C11.5019 7.41557 11.5633 7.40582 11.625 7.40751C11.6871 7.40546 11.749 7.41522 11.8075 7.43626C11.9793 7.4872 12.1586 7.50793 12.3375 7.49751H12.3463C13.2213 7.49751 14.37 5.81626 14.3675 4.55126C14.3675 3.94876 14.2275 3.44001 13.9675 3.08001C13.7724 2.79905 13.474 2.60672 13.1375 2.54501V2.54501C13.1951 2.4865 13.2478 2.42338 13.295 2.35626C14.0522 3.06541 14.6596 3.91916 15.0813 4.86705C15.503 5.81494 15.7304 6.83774 15.75 7.87501H8.12502V0.250006C9.6165 0.270908 11.0697 0.725194 12.3075 1.55751C12.0797 1.66303 11.8845 1.82798 11.7425 2.03501L11.7438 2.04001ZM6.87501 4.87501C6.8626 5.20771 6.81355 5.53804 6.72877 5.86001C6.67283 6.06932 6.63807 6.28374 6.62501 6.50001C6.61966 6.67045 6.68163 6.83615 6.79751 6.96126C6.82063 6.98206 6.83937 7.00725 6.85268 7.03536C6.86598 7.06347 6.87357 7.09394 6.87501 7.12501C6.87501 7.22001 6.82376 7.25001 6.50001 7.25001H2.25001C1.92626 7.25001 1.87501 7.22001 1.87501 7.12501C1.87646 7.09394 1.88405 7.06347 1.89735 7.03536C1.91065 7.00725 1.9294 6.98206 1.95251 6.96126C2.0684 6.83615 2.13037 6.67045 2.12501 6.50001C2.11196 6.28374 2.0772 6.06932 2.02126 5.86001C1.93648 5.53804 1.88743 5.20771 1.87501 4.87501C1.87501 4.37501 2.04126 3.53501 2.10126 3.25001H6.64876C6.70876 3.53501 6.87501 4.37501 6.87501 4.87501ZM1.77626 5.91376C1.82851 6.10542 1.86159 6.3018 1.87501 6.50001C1.87753 6.5559 1.86851 6.61172 1.84851 6.66398C1.82851 6.71624 1.79796 6.76382 1.75876 6.80376C1.67536 6.8902 1.6276 7.00491 1.62501 7.12501C1.62501 7.50001 2.00001 7.50001 2.25001 7.50001H6.50001C6.75001 7.50001 7.12501 7.50001 7.12501 7.12501C7.12243 7.00491 7.07467 6.8902 6.99126 6.80376C6.95207 6.76382 6.92152 6.71624 6.90152 6.66398C6.88152 6.61172 6.8725 6.5559 6.87501 6.50001C6.88844 6.3018 6.92152 6.10542 6.97376 5.91376C7.06198 5.57407 7.1127 5.22574 7.12501 4.87501C7.12501 4.35876 6.96251 3.53001 6.89751 3.21876C6.96487 3.18994 7.0223 3.14203 7.06273 3.08094C7.10316 3.01985 7.12481 2.94826 7.12501 2.87501V2.62501C7.12501 2.52555 7.08551 2.43017 7.01518 2.35984C6.94485 2.28951 6.84947 2.25001 6.75001 2.25001H6.43751C6.26376 2.02501 5.54501 1.16126 4.62501 1.02001C5.6394 0.529872 6.74855 0.267088 7.87501 0.250006V7.87501H0.250015C0.270438 6.22174 0.826116 4.61962 1.83376 3.30876C1.72113 3.82419 1.65131 4.34806 1.62501 4.87501C1.63733 5.22574 1.68805 5.57407 1.77626 5.91376V5.91376ZM4.37501 1.25001C5.14126 1.25001 5.81501 1.91001 6.11251 2.25001H2.63751C2.93501 1.91001 3.60876 1.25001 4.37501 1.25001ZM1.87501 2.62501C1.87501 2.59185 1.88818 2.56006 1.91163 2.53662C1.93507 2.51318 1.96686 2.50001 2.00001 2.50001H6.75001C6.78317 2.50001 6.81496 2.51318 6.8384 2.53662C6.86185 2.56006 6.87501 2.59185 6.87501 2.62501V2.87501C6.87501 2.90816 6.86185 2.93995 6.8384 2.96339C6.81496 2.98684 6.78317 3.00001 6.75001 3.00001H2.00001C1.96686 3.00001 1.93507 2.98684 1.91163 2.96339C1.88818 2.93995 1.87501 2.90816 1.87501 2.87501V2.62501ZM2.84501 9.82376C2.80914 9.74219 2.79042 9.65411 2.79001 9.56501C2.78853 9.48251 2.80339 9.40054 2.83374 9.32382C2.86409 9.24709 2.90933 9.17714 2.96685 9.11799C3.02438 9.05884 3.09304 9.01166 3.16889 8.97919C3.24473 8.94671 3.32626 8.92957 3.40876 8.92876C3.45681 8.92978 3.50459 8.93607 3.55126 8.94751C3.58221 8.95453 3.61466 8.94953 3.64205 8.93352C3.66944 8.9175 3.68972 8.89167 3.69876 8.86126C3.71664 8.79418 3.75617 8.73489 3.81121 8.6926C3.86626 8.65031 3.93373 8.62738 4.00314 8.62738C4.07255 8.62738 4.14002 8.65031 4.19507 8.6926C4.25011 8.73489 4.28964 8.79418 4.30751 8.86126C4.31316 8.88027 4.32324 8.89767 4.33693 8.91201C4.35063 8.92636 4.36754 8.93724 4.38626 8.94376C4.40497 8.95013 4.42491 8.95198 4.44447 8.94916C4.46402 8.94633 4.48263 8.93891 4.49876 8.92751C4.63703 8.83123 4.80153 8.77975 4.97001 8.78001C5.14581 8.7817 5.31669 8.83827 5.45877 8.94181C5.60085 9.04535 5.70705 9.19068 5.76251 9.35751C5.76846 9.37485 5.77816 9.39066 5.7909 9.40384C5.80365 9.41702 5.81913 9.42723 5.83626 9.43376C5.85326 9.44022 5.87146 9.44289 5.88959 9.4416C5.90773 9.4403 5.92536 9.43507 5.94126 9.42626C5.98518 9.40165 6.03468 9.38873 6.08501 9.38876C6.17133 9.3904 6.25347 9.42618 6.31345 9.48827C6.37343 9.55036 6.40635 9.63369 6.40501 9.72001C6.40453 9.74558 6.40202 9.77108 6.39751 9.79626C6.39262 9.82318 6.39669 9.85097 6.40911 9.87536C6.42153 9.89974 6.44161 9.91938 6.46626 9.93126C6.62618 10.0087 6.76106 10.1296 6.85545 10.2802C6.94985 10.4307 6.99995 10.6048 7.00001 10.7825C7.00302 11.0284 6.90838 11.2655 6.73685 11.4417C6.56532 11.6179 6.3309 11.7189 6.08501 11.7225C5.90642 11.7219 5.73216 11.6675 5.58501 11.5663C5.57122 11.557 5.55572 11.5505 5.5394 11.5473C5.52309 11.5441 5.5063 11.5442 5.49001 11.5475C5.47389 11.5506 5.45852 11.5568 5.44479 11.5658C5.43107 11.5748 5.41925 11.5864 5.41001 11.6C5.35476 11.6851 5.27911 11.7551 5.18993 11.8035C5.10075 11.852 5.00087 11.8773 4.89939 11.8773C4.79791 11.8773 4.69803 11.852 4.60885 11.8035C4.51967 11.7551 4.44402 11.6851 4.38876 11.6C4.37829 11.5844 4.36441 11.5713 4.34818 11.5618C4.33195 11.5523 4.31377 11.5465 4.29501 11.545H4.28501C4.26797 11.5449 4.25108 11.5483 4.23538 11.5549C4.21969 11.5616 4.20553 11.5714 4.19376 11.5838C4.15105 11.63 4.09923 11.6668 4.04158 11.692C3.98393 11.7172 3.92169 11.7303 3.85876 11.7303C3.79584 11.7303 3.7336 11.7172 3.67595 11.692C3.6183 11.6668 3.56648 11.63 3.52376 11.5838C3.51197 11.571 3.49765 11.5609 3.48172 11.554C3.4658 11.5471 3.44861 11.5436 3.43126 11.5438C3.41403 11.544 3.39703 11.5477 3.38133 11.5548C3.36563 11.5619 3.35156 11.5722 3.34001 11.585C3.29971 11.6306 3.25536 11.6724 3.20751 11.71V11.71C3.04959 11.8228 2.85903 11.8808 2.66501 11.875C2.4282 11.8577 2.20671 11.7514 2.04505 11.5775C1.88339 11.4036 1.79353 11.1749 1.79353 10.9375C1.79353 10.7001 1.88339 10.4714 2.04505 10.2975C2.20671 10.1236 2.4282 10.0173 2.66501 10H2.72126C2.74256 10.0014 2.76384 9.99726 2.7831 9.98807C2.80235 9.97888 2.81893 9.96492 2.83126 9.94751C2.84417 9.92988 2.85223 9.90918 2.85464 9.88746C2.85706 9.86575 2.85374 9.84379 2.84501 9.82376V9.82376ZM4.84501 12.6363L4.81251 12.125C4.84001 12.125 4.86751 12.125 4.89501 12.125C5.04422 12.1251 5.19081 12.0859 5.32001 12.0113C5.16751 12.205 5.00001 12.42 4.85001 12.6363H4.84501ZM4.00001 11.9538V12.5788C3.86126 12.375 3.67626 12.1113 3.49251 11.875C3.64633 11.9625 3.82691 11.9905 4.00001 11.9538V11.9538ZM3.25001 11.9625C3.61751 12.4375 4.01501 13.06 4.02001 13.0675C4.03131 13.0851 4.04684 13.0996 4.06518 13.1096C4.08353 13.1197 4.1041 13.125 4.12501 13.125C4.13661 13.1268 4.14842 13.1268 4.16001 13.125C4.18682 13.1172 4.21024 13.1007 4.22656 13.078C4.24287 13.0554 4.25112 13.0279 4.25001 13V11.8513H4.26126C4.34397 11.9415 4.44496 12.0131 4.55751 12.0613L4.62501 13.015C4.62501 13.015 4.62501 13.015 4.62501 13.0225C4.62434 13.03 4.62434 13.0375 4.62501 13.045C4.62695 13.0529 4.62989 13.0604 4.63376 13.0675L4.64626 13.085L4.66501 13.1038C4.66501 13.1038 4.66501 13.1038 4.67251 13.1038C4.67711 13.107 4.68217 13.1095 4.68751 13.1113H4.70001C4.71582 13.1185 4.73271 13.1232 4.75001 13.125H4.76376C4.77794 13.123 4.7918 13.1192 4.80501 13.1138V13.1138C4.81724 13.1069 4.82823 13.098 4.83751 13.0875L4.84501 13.08C4.84501 13.08 4.84501 13.08 4.84501 13.0713C5.11376 12.6688 5.45376 12.2313 5.71001 11.9138C5.75097 11.9275 5.79271 11.9388 5.83501 11.9475C5.30201 12.7397 5.01181 13.6703 5.00001 14.625H3.87501C3.85876 14.2225 3.76126 12.95 3.16126 12.0113C3.19172 11.9967 3.22135 11.9804 3.25001 11.9625V11.9625ZM5.12501 14.875C5.15817 14.875 5.18996 14.8618 5.2134 14.8384C5.23685 14.815 5.25001 14.7832 5.25001 14.75C5.23772 13.7524 5.54765 12.7774 6.13376 11.97C6.43695 11.9539 6.72223 11.8215 6.93018 11.6002C7.13813 11.379 7.25269 11.0861 7.25001 10.7825C7.2496 10.5734 7.19445 10.3681 7.09007 10.187C6.98568 10.0058 6.83569 9.85519 6.65501 9.75001V9.72126C6.65635 9.56864 6.59708 9.42172 6.49022 9.31275C6.38336 9.20378 6.23763 9.14166 6.08501 9.14001C6.03951 9.13971 5.99415 9.14517 5.95001 9.15626C5.86215 8.97032 5.72354 8.813 5.55015 8.70242C5.37676 8.59184 5.17566 8.53251 4.97001 8.53126C4.80062 8.53101 4.63357 8.57084 4.48251 8.64751C4.43016 8.56195 4.35588 8.49195 4.26737 8.44476C4.17886 8.39757 4.07935 8.37491 3.97913 8.37912C3.87892 8.38332 3.78165 8.41425 3.69741 8.46869C3.61317 8.52314 3.54502 8.59911 3.50001 8.68876C3.46963 8.68694 3.43915 8.68694 3.40876 8.68876C3.29343 8.68957 3.1794 8.71318 3.07322 8.75822C2.96705 8.80326 2.87082 8.86885 2.79009 8.95122C2.70935 9.03358 2.64569 9.13109 2.60277 9.23814C2.55986 9.3452 2.53853 9.45968 2.54001 9.57501C2.54108 9.63384 2.54777 9.69245 2.56001 9.75001C2.2595 9.78324 1.98286 9.9295 1.78619 10.1591C1.58951 10.3888 1.48751 10.6846 1.50086 10.9867C1.51422 11.2887 1.64192 11.5744 1.8581 11.7858C2.07427 11.9971 2.36274 12.1184 2.66501 12.125C2.74912 12.1241 2.83291 12.1145 2.91501 12.0963C3.41501 12.835 3.56001 13.8463 3.60501 14.385C2.58561 13.6862 1.74883 12.753 1.16502 11.6637C0.581205 10.5743 0.267413 9.36079 0.250015 8.12501H7.87501V15.75C6.67139 15.7309 5.48881 15.4313 4.42126 14.875H5.12501ZM8.12502 15.75V8.12501H15.75C15.7379 8.89236 15.6115 9.65363 15.375 10.3838V10.2038C15.375 10.1706 15.3618 10.1388 15.3384 10.1154C15.315 10.0919 15.2832 10.0788 15.25 10.0788C14.8838 10.0788 14.725 10.3288 14.5863 10.5438C14.4475 10.7588 14.3238 10.9538 14 10.9538C13.8808 10.9519 13.7634 10.9238 13.6563 10.8713C13.7238 10.6313 13.6713 10.3088 13.1963 9.97626C12.4457 9.43611 11.5161 9.20518 10.6 9.33126C10.5802 9.33533 10.5616 9.34417 10.5459 9.35702C10.5302 9.36987 10.5179 9.38634 10.51 9.40501L10.2075 10.1088C9.10502 10.4438 8.37502 11.24 8.37502 11.7038C8.37502 12.1225 8.94251 12.765 9.79751 13.1438L9.82127 13.1538C10.1344 13.2896 10.4652 13.3805 10.8038 13.4238C10.9023 13.5739 11.0373 13.6965 11.1963 13.78C11.4699 13.8957 11.7642 13.9548 12.0613 13.9538C12.2147 13.9636 12.368 13.9334 12.5063 13.8663C12.543 13.8474 12.574 13.819 12.596 13.784C12.618 13.7491 12.6302 13.7088 12.6313 13.6675C12.604 13.5069 12.5239 13.36 12.4038 13.25C12.6987 13.1301 12.9782 12.9753 13.2363 12.7888C13.515 12.6 13.7363 12.4513 14 12.4513C14.1019 12.4483 14.2026 12.4734 14.2913 12.5238C13.5853 13.5042 12.6604 14.3064 11.5899 14.8665C10.5194 15.4266 9.33298 15.7291 8.12502 15.75V15.75ZM13.2363 10.625C12.8 10.3288 12.2563 9.96126 11.25 9.96126C11.0026 9.9612 10.7559 9.98675 10.5138 10.0375L10.7125 9.57501C11.5414 9.49037 12.373 9.70836 13.0538 10.1888C13.3925 10.4263 13.4438 10.6225 13.4288 10.7513C13.3675 10.705 13.3038 10.6625 13.2363 10.6175V10.625ZM10.4375 11.7038C10.4368 11.934 10.3831 12.161 10.2806 12.3671C10.178 12.5732 10.0294 12.753 9.84626 12.8925C9.07876 12.5363 8.62502 11.9675 8.62502 11.7038C8.62502 11.44 9.07877 10.875 9.84752 10.5163C10.0303 10.6557 10.1786 10.8354 10.2809 11.0413C10.3832 11.2472 10.4368 11.4738 10.4375 11.7038V11.7038ZM14.835 11.585C14.81 11.5932 14.7882 11.6091 14.7728 11.6305C14.7574 11.6518 14.749 11.6774 14.749 11.7038C14.749 11.7301 14.7574 11.7557 14.7728 11.7771C14.7882 11.7984 14.81 11.8143 14.835 11.8225C14.9194 11.8504 14.9929 11.9042 15.0449 11.9762C15.097 12.0482 15.125 12.1349 15.125 12.2238V13.0625C14.9888 13.02 14.9088 12.905 14.7963 12.7288C14.727 12.6114 14.643 12.5035 14.5463 12.4075C14.5433 12.4039 14.5399 12.4005 14.5363 12.3975V12.3975C14.389 12.2666 14.197 12.1972 14 12.2038C13.6588 12.2038 13.3988 12.38 13.0963 12.5788C12.8224 12.7795 12.521 12.9395 12.2013 13.0538C11.9714 12.8501 11.6812 12.7272 11.375 12.7038C11.3419 12.7038 11.3101 12.7169 11.2866 12.7404C11.2632 12.7638 11.25 12.7956 11.25 12.8288C11.25 12.8619 11.2632 12.8937 11.2866 12.9171C11.3101 12.9406 11.3419 12.9538 11.375 12.9538C11.83 12.9538 12.3475 13.4963 12.375 13.6563C12.2675 13.74 11.645 13.7175 11.305 13.555C11.1013 13.4575 10.8763 13.14 10.8763 12.9488C10.8763 12.9156 10.8631 12.8838 10.8397 12.8604C10.8162 12.8369 10.7844 12.8238 10.7513 12.8238C10.7181 12.8238 10.6863 12.8369 10.6629 12.8604C10.6394 12.8838 10.6263 12.9156 10.6263 12.9488C10.6283 13.0175 10.6414 13.0854 10.665 13.15C10.4759 13.1166 10.2902 13.0664 10.11 13C10.2913 12.8359 10.4362 12.6357 10.5353 12.4122C10.6345 12.1888 10.6857 11.947 10.6857 11.7025C10.6857 11.458 10.6345 11.2162 10.5353 10.9928C10.4362 10.7693 10.2913 10.5691 10.11 10.405C10.4752 10.2713 10.8611 10.2032 11.25 10.2038C12.1788 10.2038 12.6875 10.5475 13.0963 10.8288C13.2213 10.91 13.33 10.9863 13.4438 11.0488C13.6125 11.1479 13.8043 11.2014 14 11.2038C14.46 11.2038 14.6463 10.9125 14.7963 10.6788C14.9088 10.5038 14.9888 10.3875 15.125 10.3463V11.08V11.1838C15.1252 11.2727 15.0973 11.3594 15.0452 11.4315C14.9931 11.5036 14.9195 11.5573 14.835 11.585Z" fill="#47566A"/>
<path d="M9.625 11.4537C9.76307 11.4537 9.875 11.3418 9.875 11.2037C9.875 11.0657 9.76307 10.9537 9.625 10.9537C9.48693 10.9537 9.375 11.0657 9.375 11.2037C9.375 11.3418 9.48693 11.4537 9.625 11.4537Z" fill="#47566A"/>
<path d="M12.89 3.31501C13.1137 3.31501 13.2887 3.44001 13.41 3.67876C13.5309 3.9542 13.5889 4.25309 13.58 4.55376C13.58 4.58691 13.5931 4.6187 13.6166 4.64215C13.64 4.66559 13.6718 4.67876 13.705 4.67876C13.7381 4.67876 13.7699 4.66559 13.7934 4.64215C13.8168 4.6187 13.83 4.58691 13.83 4.55376C13.8389 4.2153 13.7718 3.87915 13.6337 3.57001C13.4687 3.24126 13.2125 3.07001 12.8837 3.07001C12.8506 3.07001 12.8188 3.08318 12.7953 3.10662C12.7719 3.13006 12.7587 3.16186 12.7587 3.19501C12.7594 3.21154 12.7633 3.22778 12.7702 3.24278C12.7772 3.25779 12.7871 3.27126 12.7993 3.28242C12.8115 3.29358 12.8258 3.30221 12.8414 3.30781C12.8569 3.3134 12.8735 3.31585 12.89 3.31501Z" fill="#47566A"/>
</g>
<defs>
<linearGradient id="paint0_linear_888_296" x1="4.0625" y1="8" x2="4.0625" y2="0.125" gradientUnits="userSpaceOnUse">
<stop stop-color="#6AB891"/>
<stop offset="1" stop-color="#85CBA9"/>
</linearGradient>
<linearGradient id="paint1_linear_888_296" x1="11.9375" y1="8" x2="11.9375" y2="0.125" gradientUnits="userSpaceOnUse">
<stop stop-color="#FBCC88"/>
<stop offset="1" stop-color="#FFE5C3"/>
</linearGradient>
<linearGradient id="paint2_linear_888_296" x1="11.9375" y1="15.875" x2="11.9375" y2="8" gradientUnits="userSpaceOnUse">
<stop stop-color="#9DD5DF"/>
<stop offset="1" stop-color="#C3E1F5"/>
</linearGradient>
<linearGradient id="paint3_linear_888_296" x1="4.0625" y1="15.875" x2="4.0625" y2="8" gradientUnits="userSpaceOnUse">
<stop stop-color="#8CDD79"/>
<stop offset="1" stop-color="#D4E6B6"/>
</linearGradient>
<linearGradient id="paint4_linear_888_296" x1="4.51878" y1="14.75" x2="4.51878" y2="11.5" gradientUnits="userSpaceOnUse">
<stop stop-color="#6AB891"/>
<stop offset="1" stop-color="#85CBA9"/>
</linearGradient>
<linearGradient id="paint5_linear_888_296" x1="4.375" y1="3.125" x2="4.375" y2="2.375" gradientUnits="userSpaceOnUse">
<stop stop-color="#D1A788"/>
<stop offset="1" stop-color="#F2D3B8"/>
</linearGradient>
<linearGradient id="paint6_linear_888_296" x1="4.375" y1="7.375" x2="4.375" y2="3.125" gradientUnits="userSpaceOnUse">
<stop stop-color="#D1A788"/>
<stop offset="1" stop-color="#F2D3B8"/>
</linearGradient>
<linearGradient id="paint7_linear_888_296" x1="3.8775" y1="5.75" x2="3.8775" y2="4.37375" gradientUnits="userSpaceOnUse">
<stop stop-color="#FBCC88"/>
<stop offset="1" stop-color="#FFE5C3"/>
</linearGradient>
<linearGradient id="paint8_linear_888_296" x1="4.87503" y1="5.75" x2="4.87503" y2="4.375" gradientUnits="userSpaceOnUse">
<stop stop-color="#FBCC88"/>
<stop offset="1" stop-color="#FFE5C3"/>
</linearGradient>
<linearGradient id="paint9_linear_888_296" x1="4.37499" y1="5.125" x2="4.37499" y2="3.625" gradientUnits="userSpaceOnUse">
<stop stop-color="#FBCC88"/>
<stop offset="1" stop-color="#FFE5C3"/>
</linearGradient>
<linearGradient id="paint10_linear_888_296" x1="3.875" y1="5.74998" x2="3.875" y2="4.99873" gradientUnits="userSpaceOnUse">
<stop stop-color="#FBCC88"/>
<stop offset="1" stop-color="#FFE5C3"/>
</linearGradient>
<linearGradient id="paint11_linear_888_296" x1="4.875" y1="5.74998" x2="4.875" y2="4.99873" gradientUnits="userSpaceOnUse">
<stop stop-color="#FBCC88"/>
<stop offset="1" stop-color="#FFE5C3"/>
</linearGradient>
<linearGradient id="paint12_linear_888_296" x1="4.375" y1="2.37501" x2="4.375" y2="1.12751" gradientUnits="userSpaceOnUse">
<stop stop-color="#D4D8E1"/>
<stop offset="1" stop-color="#F3F4F5"/>
</linearGradient>
<linearGradient id="paint13_linear_888_296" x1="11.875" y1="13.3075" x2="11.875" y2="10.0787" gradientUnits="userSpaceOnUse">
<stop stop-color="#949AAF"/>
<stop offset="1" stop-color="#C6CCDA"/>
</linearGradient>
<linearGradient id="paint14_linear_888_296" x1="4.37502" y1="12" x2="4.37502" y2="8.50126" gradientUnits="userSpaceOnUse">
<stop stop-color="#6AB891"/>
<stop offset="1" stop-color="#85CBA9"/>
</linearGradient>
<linearGradient id="paint15_linear_888_296" x1="11.625" y1="7.37497" x2="11.625" y2="2.64372" gradientUnits="userSpaceOnUse">
<stop stop-color="#8CDD79"/>
<stop offset="1" stop-color="#D4E6B6"/>
</linearGradient>
<linearGradient id="paint16_linear_888_296" x1="12.5263" y1="2.82877" x2="12.5263" y2="1.55252" gradientUnits="userSpaceOnUse">
<stop stop-color="#6AB891"/>
<stop offset="1" stop-color="#85CBA9"/>
</linearGradient>
<clipPath id="clip0_888_296">
<rect width="16" height="16" fill="white"/>
</clipPath>
</defs>
</svg>
